<svg width="175" height="209" viewBox="0 0 175 209" fill="none" xmlns="http://www.w3.org/2000/svg">
<path d="M61.7263 160.244C61.4156 160.141 61.2084 160.141 61.0013 160.038C59.344 160.038 57.6867 160.141 55.9258 160.244M54.6829 160.244C41.321 159.935 30.0307 156.012 20.7084 148.475C10.8683 140.628 6 131.13 6 119.98V6.00116C21.3299 5.89791 34.4847 12.7119 45.4642 26.5463C55.6151 39.3483 61.0013 54.7313 61.6228 72.4889C61.6228 73.6245 61.6228 102.842 61.7263 160.244C62.6586 176.763 70.6343 188.842 85.6535 196.586C94.3542 201.025 103.676 203.193 113.413 202.987C128.329 202.47 143.348 202.161 158.574 201.954C161.682 201.954 164.789 201.954 168 201.954C167.068 185.539 160.853 173.976 149.252 167.162C140.448 161.896 128.432 159.522 113.206 160.038L62.8657 160.244H54.6829Z" stroke="black" stroke-width="12" stroke-miterlimit="3" stroke-linecap="round"/>
</svg>
