<svg width="133" height="10" viewBox="0 0 133 10" fill="none" xmlns="http://www.w3.org/2000/svg">
<path d="M4.80003 9.60004C7.45101 9.60004 9.60006 7.45099 9.60006 4.80002C9.60006 2.14904 7.45101 0 4.80003 0C2.14905 0 0 2.14904 0 4.80002C0 7.45099 2.14905 9.60004 4.80003 9.60004Z" fill="#C4C4C4"/>
<path d="M22.3996 9.60004C25.0506 9.60004 27.1997 7.45099 27.1997 4.80002C27.1997 2.14904 25.0506 0 22.3996 0C19.7487 0 17.5996 2.14904 17.5996 4.80002C17.5996 7.45099 19.7487 9.60004 22.3996 9.60004Z" fill="#C4C4C4"/>
<path d="M40.0002 9.60004C42.6512 9.60004 44.8003 7.45099 44.8003 4.80002C44.8003 2.14904 42.6512 0 40.0002 0C37.3492 0 35.2002 2.14904 35.2002 4.80002C35.2002 7.45099 37.3492 9.60004 40.0002 9.60004Z" fill="#C4C4C4"/>
<path d="M57.5998 9.60004C60.2508 9.60004 62.3999 7.45099 62.3999 4.80002C62.3999 2.14904 60.2508 0 57.5998 0C54.9489 0 52.7998 2.14904 52.7998 4.80002C52.7998 7.45099 54.9489 9.60004 57.5998 9.60004Z" fill="#C4C4C4"/>
<path d="M75.2004 9.60004C77.8514 9.60004 80.0005 7.45099 80.0005 4.80002C80.0005 2.14904 77.8514 0 75.2004 0C72.5494 0 70.4004 2.14904 70.4004 4.80002C70.4004 7.45099 72.5494 9.60004 75.2004 9.60004Z" fill="#C4C4C4"/>
<path d="M92.8 9.60004C95.451 9.60004 97.6001 7.45099 97.6001 4.80002C97.6001 2.14904 95.451 0 92.8 0C90.149 0 88 2.14904 88 4.80002C88 7.45099 90.149 9.60004 92.8 9.60004Z" fill="#C4C4C4"/>
<path d="M110.401 9.60004C113.052 9.60004 115.201 7.45099 115.201 4.80002C115.201 2.14904 113.052 0 110.401 0C107.75 0 105.601 2.14904 105.601 4.80002C105.601 7.45099 107.75 9.60004 110.401 9.60004Z" fill="#C4C4C4"/>
<path d="M128 9.60004C130.651 9.60004 132.8 7.45099 132.8 4.80002C132.8 2.14904 130.651 0 128 0C125.349 0 123.2 2.14904 123.2 4.80002C123.2 7.45099 125.349 9.60004 128 9.60004Z" fill="#C4C4C4"/>
</svg>
