<svg width="175" height="209" viewBox="0 0 175 209" fill="none" xmlns="http://www.w3.org/2000/svg">
<path d="M62.2263 160.244C61.9156 160.141 61.7084 160.141 61.5013 160.038C59.844 160.038 58.1867 160.141 56.4258 160.244M55.1829 160.244C41.821 159.935 30.5307 156.012 21.2084 148.475C11.3683 140.628 6.5 131.13 6.5 119.98V6.00116C21.8299 5.89791 34.9847 12.7119 45.9642 26.5463C56.1151 39.3483 61.5013 54.7313 62.1228 72.4889C62.1228 73.6245 62.1228 102.842 62.2263 160.244C63.1586 176.763 71.1343 188.842 86.1535 196.586C94.8542 201.025 104.176 203.193 113.913 202.987C128.829 202.47 143.848 202.161 159.074 201.954C162.182 201.954 165.289 201.954 168.5 201.954C167.568 185.539 161.353 173.976 149.752 167.162C140.948 161.896 128.932 159.522 113.706 160.038L63.3657 160.244H55.1829Z" stroke="black" stroke-width="12" stroke-miterlimit="3" stroke-linecap="round"/>
</svg>
