<svg width="26" height="26" viewBox="0 0 26 26" fill="none" xmlns="http://www.w3.org/2000/svg">
<g id="02" filter="url(#filter0_d_805_563)">
<g id="Layer 1">
<path id="Vector" d="M24.2239 10.8257C24.136 10.5071 23.9667 10.217 23.7326 9.98369C23.4986 9.7504 23.2079 9.58202 22.889 9.4951C22.4058 9.35799 21.9032 9.30134 21.4015 9.32743C22.0056 8.60733 22.3624 7.89582 22.1431 7.33263C21.9239 6.76944 21.5219 6.40831 21.0683 6.40186H21.0555C20.5825 6.40186 20.1526 6.75439 19.9033 7.34553C19.8904 7.37562 19.8796 7.40786 19.8667 7.44011C19.7915 7.19658 19.6989 6.95879 19.5894 6.7286C19.4483 6.43084 19.2318 6.17507 18.9615 5.98658C18.6912 5.79808 18.3764 5.68338 18.0482 5.65381C17.8998 5.63803 17.7499 5.66433 17.6157 5.72971C17.4815 5.79509 17.3684 5.89692 17.2894 6.02354C17.0959 6.36532 17.1905 6.83393 17.5731 7.41431C18.0959 8.15492 18.3985 9.02833 18.4459 9.93361C18.0253 9.58245 17.4885 9.40147 16.9412 9.42631C16.5895 9.46413 16.2501 9.57702 15.9459 9.75735C16.1373 9.35128 16.2188 8.90213 16.1824 8.45471C16.1186 7.89045 15.8341 7.37435 15.3911 7.01912C14.9481 6.6639 14.3825 6.4984 13.8178 6.55878C13.7448 6.55878 13.6717 6.58028 13.6029 6.59533C13.0375 6.73684 12.5366 7.06567 12.182 7.52824C11.9247 7.45642 11.6506 7.47307 11.4039 7.57553C11.2823 7.62408 11.1668 7.68685 11.0599 7.76254C10.9445 7.63661 10.804 7.53625 10.6474 7.46793C10.4908 7.39961 10.3217 7.36485 10.1509 7.36588C9.98005 7.36691 9.81134 7.40372 9.6556 7.47392C9.49987 7.54413 9.36056 7.64618 9.24667 7.7735C9.13278 7.90082 9.04682 8.05058 8.99433 8.21315C8.94184 8.37571 8.92398 8.54747 8.94192 8.71735C8.95985 8.88724 9.01317 9.05148 9.09844 9.19951C9.18371 9.34753 9.29905 9.47605 9.43701 9.57678C9.36429 9.79091 9.34006 10.0185 9.36608 10.2431C8.94971 9.93098 8.46346 9.72512 7.94951 9.64342C7.87428 9.08238 7.55184 8.52779 7.08968 8.34078C6.95658 7.88657 6.65929 7.49811 6.25565 7.25095C6.01833 7.10346 5.73754 7.04199 5.46031 7.07683C5.17333 6.54292 4.71426 6.12172 4.15767 5.88167C3.86918 5.76178 3.55782 5.70694 3.24573 5.72106C2.93365 5.73518 2.62851 5.8179 2.35203 5.96335C2.06571 6.0936 1.81201 6.286 1.60936 6.52657C1.40671 6.76714 1.26021 7.04984 1.18051 7.35413C1.03882 7.94332 1.10095 8.56313 1.35677 9.11248C1.15993 9.31042 1.03701 9.56993 1.00854 9.84763C0.963737 10.3205 1.09627 10.7932 1.38042 11.1739C1.25789 11.6361 1.4965 12.1821 1.82108 12.5475C1.95027 12.7151 2.1174 12.8497 2.30874 12.9401C2.50007 13.0305 2.71014 13.0743 2.92166 13.0677C3.05533 13.2463 3.22163 13.398 3.41176 13.5148H3.40102C3.3098 13.5148 3.22232 13.551 3.15782 13.6155C3.09332 13.68 3.05708 13.7675 3.05708 13.8587C3.05602 13.8687 3.05602 13.8788 3.05708 13.8888C3.23335 15.9825 4.08888 19.6475 7.7711 21.3973C7.15554 22.0846 6.80765 22.9704 6.79089 23.8929C6.79146 23.9838 6.82795 24.0707 6.89238 24.1347C6.95682 24.1988 7.04398 24.2347 7.13482 24.2347H18.1148C18.1599 24.235 18.2046 24.2264 18.2463 24.2093C18.288 24.1923 18.3259 24.1671 18.3579 24.1354C18.3899 24.1036 18.4152 24.0658 18.4325 24.0242C18.4499 23.9826 18.4588 23.938 18.4588 23.8929C18.4395 22.9695 18.0876 22.0841 17.4678 21.3994C21.15 19.6454 22.0077 15.9825 22.184 13.8974C22.1911 13.8066 22.1622 13.7166 22.1034 13.647C22.0447 13.5774 21.9609 13.5338 21.8701 13.5255H20.4299C20.8061 12.4142 20.4579 11.7478 19.9248 11.1868C20.8284 11.0683 21.7469 11.2123 22.5709 11.6017C22.8406 11.7292 23.1328 11.8022 23.4307 11.8166C23.6297 11.8255 23.8251 11.7621 23.981 11.6382C24.0945 11.5398 24.1775 11.4111 24.2206 11.2673C24.2636 11.1234 24.2647 10.9702 24.2239 10.8257ZM20.2537 8.37517C20.3568 8.06778 20.445 7.80339 20.5267 7.61207C20.6771 7.25095 20.8964 7.08973 21.0447 7.08973C21.2059 7.08973 21.3736 7.27459 21.494 7.58198C21.6358 7.94956 21.0812 8.87172 19.5593 10.1615C19.8223 9.57878 20.0541 8.98251 20.2537 8.37517ZM17.8741 6.35672C17.9466 6.32464 18.0284 6.32006 18.1041 6.34383C18.2888 6.38414 18.462 6.46557 18.6108 6.58205C18.7597 6.69854 18.8804 6.84708 18.9639 7.01664C19.2666 7.61389 19.394 8.28462 19.3315 8.95126C19.2627 9.14042 19.1911 9.33173 19.1165 9.52519C18.998 8.62902 18.6671 7.77412 18.1514 7.03169C17.8461 6.58888 17.8569 6.38467 17.8741 6.35672ZM11.6253 8.2075C11.6986 8.17278 11.7796 8.15751 11.8606 8.16316C11.9415 8.1688 12.0196 8.19518 12.0874 8.23975C12.1246 8.26537 12.1665 8.28336 12.2107 8.29269C12.2549 8.30203 12.3005 8.30251 12.3449 8.29411C12.3892 8.28572 12.4315 8.26861 12.4692 8.24378C12.507 8.21896 12.5394 8.1869 12.5646 8.14947L12.584 8.11722C12.8384 7.69058 13.2509 7.38158 13.7319 7.25739C14.1094 7.18041 14.5021 7.25585 14.8243 7.46727C15.1464 7.67868 15.3719 8.00891 15.4515 8.38592C15.4515 8.42891 15.4666 8.46975 15.4709 8.51274C15.5069 9.00749 15.3462 9.49646 15.0238 9.87342C14.9616 9.93885 14.9279 10.0262 14.9299 10.1164C14.9319 10.2066 14.9695 10.2923 15.0345 10.3549L15.0517 10.37C14.563 10.8064 14.1081 11.2792 13.691 11.7844C13.6294 11.7375 13.5535 11.7132 13.4761 11.7156C13.0439 11.7434 12.6135 11.7929 12.1863 11.8639L12.9279 10.83C13.2629 10.718 13.6153 10.667 13.9683 10.6795C14.0141 10.6877 14.0611 10.6864 14.1065 10.6759C14.1518 10.6653 14.1945 10.6457 14.232 10.6182C14.2695 10.5906 14.3011 10.5558 14.3247 10.5157C14.3484 10.4756 14.3637 10.4312 14.3696 10.385C14.3756 10.3389 14.3721 10.292 14.3595 10.2472C14.3468 10.2024 14.3252 10.1607 14.2959 10.1245C14.2666 10.0883 14.2303 10.0585 14.1891 10.0368C14.148 10.015 14.1028 10.0019 14.0564 9.9981C13.8778 9.97876 13.6977 9.97876 13.5191 9.9981L14.179 9.07593C14.232 9.0021 14.2535 8.91024 14.2388 8.82054C14.2241 8.73085 14.1743 8.65067 14.1005 8.59765C14.0267 8.54463 13.9348 8.52311 13.8451 8.53783C13.7554 8.55254 13.6753 8.60228 13.6222 8.67611L12.9602 9.59828C12.9233 9.42167 12.8678 9.24946 12.7946 9.08453C12.7753 9.04374 12.7481 9.0072 12.7145 8.97705C12.681 8.9469 12.6417 8.92375 12.5991 8.90894C12.5565 8.89413 12.5113 8.88796 12.4663 8.8908C12.4212 8.89364 12.3772 8.90542 12.3368 8.92546C12.255 8.9657 12.1926 9.03675 12.1632 9.123C12.1337 9.20925 12.1397 9.30365 12.1799 9.38547C12.3048 9.71662 12.3689 10.0676 12.369 10.4216L11.6296 11.4555C11.5285 10.8106 11.3587 10.1959 11.3566 10.1873C11.3286 10.1039 11.2697 10.0345 11.192 9.99319C11.1144 9.95192 11.0239 9.94196 10.9391 9.96535C10.8543 9.98874 10.7817 10.0437 10.7363 10.119C10.6908 10.1942 10.6758 10.284 10.6945 10.37C10.8235 10.83 11.0427 11.8747 11.0105 12.3046L10.2968 13.2998C10.2942 12.9706 10.248 12.6432 10.1593 12.3261C10.0281 11.7457 9.90562 11.1976 10.2044 10.7805C10.2573 10.7064 10.2787 10.6143 10.2638 10.5244C10.2489 10.4345 10.1989 10.3543 10.1249 10.3012C9.98516 10.2023 10.0131 9.91641 10.0969 9.69286C10.2324 9.33603 10.4925 9.10388 10.6429 9.12107C10.7262 9.12952 10.8096 9.10732 10.8777 9.05866C10.9457 9.00999 10.9937 8.93818 11.0127 8.85668C11.0543 8.71829 11.128 8.59164 11.2276 8.48695C11.3386 8.36638 11.4742 8.27108 11.6253 8.2075ZM10.9804 13.5169L11.55 12.7238C12.0685 12.5639 12.6037 12.4643 13.145 12.4271C12.872 12.7689 12.5947 13.1343 12.3153 13.5169H10.9804ZM10.1206 8.04199C10.2029 8.04095 10.2843 8.0586 10.3588 8.0936C10.4332 8.1286 10.4988 8.18004 10.5505 8.24405C10.4987 8.31814 10.4534 8.39653 10.4151 8.47835C10.1428 8.55689 9.90446 8.72407 9.73795 8.95341C9.63993 8.84977 9.58694 8.71154 9.59056 8.56894C9.59419 8.42634 9.65414 8.29098 9.7573 8.19246C9.85668 8.0954 9.99027 8.04135 10.1292 8.04199H10.1206ZM9.34028 11.1675C9.30854 11.6156 9.3551 12.0659 9.47786 12.4981C9.56398 12.7843 9.60247 13.0828 9.59178 13.3815C9.59178 13.4267 9.59178 13.4697 9.59178 13.5148H8.59868L8.2397 13.158H8.96196C9.05317 13.158 9.14066 13.1217 9.20516 13.0572C9.26966 12.9927 9.30589 12.9053 9.30589 12.814C9.30589 12.7228 9.26966 12.6353 9.20516 12.5708C9.14066 12.5063 9.05317 12.4701 8.96196 12.4701H8.2397L8.747 11.9628C8.81114 11.8984 8.84706 11.8111 8.84686 11.7202C8.84665 11.6293 8.81035 11.5422 8.74593 11.4781C8.71403 11.4463 8.67619 11.4212 8.63456 11.404C8.59294 11.3869 8.54835 11.3781 8.50334 11.3782C8.41244 11.3784 8.32534 11.4147 8.2612 11.4792L7.7539 11.9843V11.2642C7.75765 11.2169 7.75157 11.1693 7.73604 11.1245C7.72051 11.0796 7.69587 11.0385 7.66366 11.0036C7.63146 10.9688 7.59239 10.941 7.54892 10.9219C7.50544 10.9029 7.4585 10.8931 7.41104 10.8931C7.36359 10.8931 7.31665 10.9029 7.27317 10.9219C7.22969 10.941 7.19063 10.9688 7.15842 11.0036C7.12622 11.0385 7.10158 11.0796 7.08605 11.1245C7.07052 11.1693 7.06444 11.2169 7.06819 11.2642V11.9865L6.55659 11.4749C6.49188 11.4107 6.40435 11.3749 6.31324 11.3753C6.22214 11.3757 6.13492 11.4123 6.07078 11.477C6.00665 11.5417 5.97084 11.6292 5.97125 11.7204C5.97165 11.8115 6.00823 11.8987 6.07293 11.9628L6.58238 12.4744H5.86013C5.81282 12.4707 5.76525 12.4767 5.72041 12.4923C5.67556 12.5078 5.63442 12.5324 5.59956 12.5646C5.56471 12.5968 5.53689 12.6359 5.51787 12.6794C5.49885 12.7229 5.48903 12.7698 5.48903 12.8173C5.48903 12.8647 5.49885 12.9117 5.51787 12.9551C5.53689 12.9986 5.56471 13.0377 5.59956 13.0699C5.63442 13.1021 5.67556 13.1267 5.72041 13.1423C5.76525 13.1578 5.81282 13.1639 5.86013 13.1601H6.58238L6.22555 13.5191H4.97665C4.81924 12.9786 4.84626 12.4011 5.05345 11.8777C5.26063 11.3543 5.63619 10.9147 6.12087 10.6284C6.60555 10.3421 7.17176 10.2253 7.73019 10.2964C8.28861 10.3676 8.80745 10.6226 9.20486 11.0213C9.2543 11.0707 9.29944 11.118 9.34028 11.1675ZM3.19681 12.3454C3.11287 12.3194 3.02219 12.3264 2.94316 12.3648C2.77549 12.4486 2.52614 12.2874 2.35203 12.0918C2.07043 11.7865 1.9866 11.4319 2.08333 11.2943C2.12991 11.225 2.14951 11.141 2.13842 11.0582C2.12733 10.9755 2.08633 10.8996 2.02314 10.845C1.90881 10.7228 1.82141 10.578 1.76661 10.4199C1.71181 10.2618 1.69082 10.0939 1.705 9.92716C1.70708 9.83878 1.73241 9.7525 1.77845 9.67702C1.82449 9.60155 1.88961 9.53954 1.96725 9.49725C2.04789 9.45474 2.10835 9.38196 2.13535 9.2949C2.16236 9.20784 2.1537 9.11362 2.11127 9.03294C2.10489 9.02101 2.09771 9.00952 2.08978 8.99855C1.95455 8.7791 1.86388 8.53517 1.82294 8.28068C1.782 8.02619 1.7916 7.76613 1.85118 7.51534C1.90322 7.30694 2.00129 7.11285 2.13818 6.94732C2.27506 6.78179 2.44729 6.64903 2.64222 6.55878C2.83098 6.45787 3.03986 6.4003 3.25367 6.39026C3.46748 6.38022 3.68083 6.41796 3.87822 6.50075C4.35466 6.70708 4.73019 7.09343 4.92291 7.57553C4.95277 7.66007 5.01427 7.72972 5.09447 7.76982C5.17466 7.80991 5.26728 7.81732 5.35283 7.79049L5.38722 7.77544C5.46669 7.73927 5.55415 7.72422 5.64114 7.73175C5.72813 7.73928 5.8117 7.76914 5.88377 7.81843C6.02548 7.90686 6.14696 8.02415 6.24029 8.16267C6.33363 8.3012 6.39672 8.45783 6.42546 8.62237C6.42798 8.70755 6.46222 8.78871 6.52147 8.84995C6.58072 8.91119 6.66071 8.94808 6.74575 8.95341C6.92202 8.95341 7.13697 9.25435 7.21866 9.59828C6.43203 9.64269 5.68917 9.97471 5.13142 10.5312C5.10133 10.5613 5.07553 10.5914 5.04759 10.6215L4.74235 10.0282C4.80075 9.65963 4.92605 9.30484 5.11208 8.98135C5.15773 8.90684 5.17332 8.81774 5.15565 8.73215C5.13799 8.64656 5.08842 8.57091 5.01699 8.52056C4.94556 8.4702 4.85765 8.44893 4.77111 8.46105C4.68456 8.47317 4.60588 8.51779 4.55104 8.58583C4.44464 8.75311 4.35602 8.93106 4.28664 9.11677L3.7428 8.02909C3.69998 7.95118 3.62865 7.89288 3.54379 7.86642C3.45892 7.83995 3.3671 7.84737 3.28758 7.88713C3.20807 7.92689 3.14704 7.99589 3.11729 8.07966C3.08754 8.16344 3.09139 8.25548 3.12802 8.33648L3.67186 9.42416C3.4827 9.36812 3.28817 9.33209 3.09148 9.31668C3.04427 9.31227 2.99667 9.31767 2.95165 9.33253C2.90663 9.3474 2.86517 9.37141 2.82987 9.40306C2.79457 9.43471 2.7662 9.47331 2.74653 9.51645C2.72686 9.55959 2.71633 9.60633 2.71559 9.65373C2.71484 9.70114 2.72391 9.74818 2.74221 9.79192C2.76052 9.83565 2.78767 9.87513 2.82196 9.90787C2.85625 9.94061 2.89693 9.96591 2.94147 9.98217C2.986 9.99844 3.03341 10.0053 3.08073 10.0024C3.45008 10.0493 3.80816 10.1614 4.13832 10.3334L4.60478 11.2642C4.56608 11.333 4.52954 11.4018 4.4973 11.4792C4.01579 11.3265 3.56223 11.2169 3.42251 11.1847C3.33437 11.1686 3.24342 11.1875 3.16902 11.2374C3.09462 11.2874 3.04264 11.3644 3.02415 11.452C3.00566 11.5397 3.02212 11.6311 3.07003 11.7069C3.11793 11.7826 3.1935 11.8366 3.28064 11.8575C3.44831 11.8919 3.86317 11.9951 4.28449 12.1283C4.20974 12.464 4.18942 12.8094 4.2243 13.1515C4.05489 13.1073 3.89589 13.03 3.75645 12.9242C3.617 12.8183 3.49986 12.6859 3.41176 12.5346C3.39187 12.4893 3.36232 12.4489 3.32519 12.4163C3.28807 12.3836 3.24425 12.3594 3.19681 12.3454ZM7.49595 23.549C7.61633 22.6182 8.19241 21.868 8.49335 21.6789H16.7477C17.0508 21.868 17.6247 22.6204 17.7451 23.549H7.49595ZM16.6854 20.991H8.56429C4.99815 19.5744 4.03084 16.2791 3.78794 14.2027H21.4617C21.2145 16.2791 20.2537 19.5744 16.6854 20.991ZM13.1773 13.5169C13.4761 13.1193 13.7706 12.7453 14.0586 12.4035C15.3032 10.9181 16.2705 10.1658 16.9799 10.1034C17.5473 10.054 17.9902 10.428 18.549 10.9009L18.6479 10.9826L18.6608 10.9934L18.8392 11.1438L18.9274 11.2148L18.9811 11.2599L19.0069 11.2814C19.755 11.9112 20.1763 12.3734 19.6926 13.5105L13.1773 13.5169ZM23.549 11.103C23.5232 11.1266 23.334 11.1739 22.8374 10.9654C22.0339 10.6009 21.1569 10.4273 20.2752 10.4581C20.374 10.3721 20.4708 10.284 20.5653 10.1937C21.2609 9.95884 22.0126 9.94757 22.7149 10.1615C22.8948 10.2147 23.0603 10.3076 23.1995 10.4334C23.3386 10.5591 23.4478 10.7145 23.5189 10.888C23.5529 10.9542 23.5635 11.03 23.549 11.103Z" fill="black"/>
<path id="Vector_2" d="M19.4945 16.9069C19.2589 17.3883 18.9627 17.8376 18.6132 18.2439C18.5577 18.3134 18.5313 18.4017 18.5396 18.4902C18.5478 18.5787 18.5899 18.6606 18.6572 18.7187C18.7245 18.7768 18.8117 18.8066 18.9004 18.8018C18.9892 18.7971 19.0727 18.7581 19.1334 18.6932C19.5196 18.2425 19.8475 17.7448 20.1093 17.2121C20.1329 17.1714 20.148 17.1263 20.1535 17.0796C20.159 17.0328 20.1548 16.9855 20.1413 16.9404C20.1278 16.8953 20.1051 16.8535 20.0748 16.8175C20.0444 16.7815 20.007 16.7522 19.9649 16.7313C19.9227 16.7103 19.8767 16.6983 19.8297 16.6958C19.7827 16.6934 19.7357 16.7006 19.6916 16.7171C19.6475 16.7336 19.6073 16.7589 19.5734 16.7915C19.5395 16.8242 19.5126 16.8634 19.4945 16.9069Z" fill="black"/>
<path id="Vector_3" d="M11.326 3.45051C11.5683 3.45009 11.805 3.37786 12.0062 3.24297C12.2074 3.10808 12.3641 2.91658 12.4565 2.69265C12.5489 2.46873 12.5729 2.22244 12.5253 1.9849C12.4778 1.74737 12.361 1.52925 12.1895 1.35811C12.0181 1.18697 11.7998 1.07049 11.5621 1.02339C11.3245 0.976284 11.0783 1.00067 10.8545 1.09347C10.6307 1.18627 10.4395 1.34332 10.305 1.54476C10.1704 1.74621 10.0986 1.98301 10.0986 2.22525C10.0986 2.38634 10.1304 2.54584 10.1921 2.69464C10.2538 2.84343 10.3443 2.9786 10.4583 3.0924C10.5723 3.20621 10.7076 3.29641 10.8565 3.35786C11.0054 3.41931 11.165 3.45079 11.326 3.45051ZM11.326 1.68571C11.4329 1.68486 11.5377 1.71578 11.627 1.77454C11.7162 1.83331 11.7861 1.91727 11.8276 2.01578C11.8691 2.11429 11.8804 2.22291 11.86 2.32785C11.8397 2.4328 11.7887 2.52934 11.7134 2.60522C11.6381 2.68111 11.542 2.73292 11.4372 2.75409C11.3324 2.77526 11.2237 2.76483 11.1249 2.72412C11.026 2.68342 10.9415 2.61427 10.882 2.52545C10.8226 2.43663 10.7908 2.33215 10.7908 2.22525C10.7908 2.0829 10.847 1.94631 10.9473 1.84525C11.0476 1.74419 11.1837 1.68685 11.326 1.68571Z" fill="black"/>
<path id="Vector_4" d="M7.43815 5.48616C7.68048 5.48616 7.91737 5.4143 8.11886 5.27966C8.32035 5.14503 8.4774 4.95367 8.57014 4.72979C8.66287 4.5059 8.68714 4.25954 8.63986 4.02187C8.59258 3.78419 8.47589 3.56587 8.30453 3.39451C8.13318 3.22316 7.91486 3.10646 7.67718 3.05919C7.43951 3.01191 7.19315 3.03618 6.96926 3.12891C6.74538 3.22165 6.55402 3.37869 6.41938 3.58019C6.28475 3.78168 6.21289 4.01857 6.21289 4.2609C6.21289 4.58586 6.34198 4.89751 6.57176 5.12729C6.80154 5.35707 7.11319 5.48616 7.43815 5.48616ZM7.43815 3.72136C7.54486 3.72136 7.64917 3.753 7.7379 3.81229C7.82663 3.87157 7.89578 3.95584 7.93662 4.05443C7.97746 4.15302 7.98814 4.2615 7.96732 4.36616C7.9465 4.47082 7.89512 4.56696 7.81966 4.64241C7.7442 4.71787 7.64807 4.76926 7.54341 4.79008C7.43875 4.81089 7.33026 4.80021 7.23167 4.75937C7.13308 4.71854 7.04882 4.64938 6.98953 4.56065C6.93025 4.47193 6.8986 4.36761 6.8986 4.2609C6.8986 4.11781 6.95545 3.98057 7.05663 3.87939C7.15782 3.7782 7.29505 3.72136 7.43815 3.72136Z" fill="black"/>
<path id="Vector_5" d="M16.3395 5.11213C16.5818 5.11213 16.8187 5.04027 17.0202 4.90564C17.2217 4.77101 17.3788 4.57965 17.4715 4.35576C17.5642 4.13188 17.5885 3.88552 17.5412 3.64784C17.494 3.41017 17.3773 3.19185 17.2059 3.02049C17.0345 2.84914 16.8162 2.73244 16.5785 2.68516C16.3409 2.63789 16.0945 2.66215 15.8706 2.75489C15.6467 2.84763 15.4554 3.00467 15.3207 3.20616C15.1861 3.40765 15.1143 3.64454 15.1143 3.88688C15.1143 4.21184 15.2433 4.52348 15.4731 4.75326C15.7029 4.98304 16.0146 5.11213 16.3395 5.11213ZM16.3395 3.34734C16.4462 3.34734 16.5505 3.37898 16.6393 3.43826C16.728 3.49755 16.7972 3.58181 16.838 3.6804C16.8788 3.77899 16.8895 3.88748 16.8687 3.99214C16.8479 4.0968 16.7965 4.19294 16.721 4.26839C16.6456 4.34385 16.5494 4.39523 16.4448 4.41605C16.3401 4.43687 16.2316 4.42619 16.133 4.38535C16.0345 4.34451 15.9502 4.27536 15.8909 4.18663C15.8316 4.0979 15.8 3.99359 15.8 3.88688C15.8 3.74378 15.8568 3.60655 15.958 3.50536C16.0592 3.40418 16.1964 3.34734 16.3395 3.34734Z" fill="black"/>
</g>
</g>
<defs>
<filter id="filter0_d_805_563" x="0" y="0" width="25.2539" height="25.2347" filterUnits="userSpaceOnUse" color-interpolation-filters="sRGB">
<feFlood flood-opacity="0" result="BackgroundImageFix"/>
<feColorMatrix in="SourceAlpha" type="matrix" values="0 0 0 0 0 0 0 0 0 0 0 0 0 0 0 0 0 0 127 0" result="hardAlpha"/>
<feOffset/>
<feGaussianBlur stdDeviation="0.5"/>
<feComposite in2="hardAlpha" operator="out"/>
<feColorMatrix type="matrix" values="0 0 0 0 0 0 0 0 0 0 0 0 0 0 0 0 0 0 0.25 0"/>
<feBlend mode="normal" in2="BackgroundImageFix" result="effect1_dropShadow_805_563"/>
<feBlend mode="normal" in="SourceGraphic" in2="effect1_dropShadow_805_563" result="shape"/>
</filter>
</defs>
</svg>
