<svg width="24" height="24" viewBox="0 0 24 24" fill="none" xmlns="http://www.w3.org/2000/svg">
<g id="Arrow">
<g id="Group">
<g id="Group_2">
<path id="Vector" d="M9.68815 12.0051L18.6665 3.02634C18.9137 2.77971 19.0497 2.44995 19.0497 2.09834C19.0497 1.74654 18.9137 1.41698 18.6665 1.16995L17.8798 0.38361C17.6329 0.136195 17.303 0 16.9514 0C16.5998 0 16.2702 0.136195 16.0232 0.38361L5.33303 11.0736C5.08503 11.3214 4.94922 11.6525 4.9502 12.0045C4.94922 12.358 5.08483 12.6888 5.33303 12.9368L16.0132 23.6164C16.2602 23.8638 16.5898 24 16.9416 24C17.2932 24 17.6228 23.8638 17.87 23.6164L18.6565 22.83C19.1683 22.3182 19.1683 21.4851 18.6565 20.9735L9.68815 12.0051Z" fill="black"/>
</g>
</g>
</g>
</svg>
