<svg width="69" height="69" viewBox="0 0 69 69" fill="none" xmlns="http://www.w3.org/2000/svg">
<g id="Asset 5" clip-path="url(#clip0_1093_6937)">
<g id="Layer 2">
<g id="Object">
<path id="Vector" d="M53.647 0H15.353C6.87377 0 0 6.87377 0 15.353V53.647C0 62.1262 6.87377 69 15.353 69H53.647C62.1262 69 69 62.1262 69 53.647V15.353C69 6.87377 62.1262 0 53.647 0Z" fill="#95AD42"/>
<path id="Vector_2" d="M20.5213 40.8527C29.0493 43.8036 38.9558 43.6055 47.4628 40.6672C50.5663 39.6268 53.4794 38.0877 56.0878 36.1102C56.893 35.4863 58.3726 34.1795 59.3169 35.3978C59.8607 36.0934 59.4054 37.2569 59.0345 37.9271C58.1281 39.5501 56.5262 40.6925 55.0676 41.7759C53.1316 43.1786 51.0306 44.3381 48.8118 45.2285C45.0442 46.732 41.0582 47.616 37.0083 47.8463C35.4865 47.9475 33.9604 47.977 32.4386 47.9306H32.3079C30.1393 47.8591 27.9785 47.6352 25.8413 47.2604C21.7564 46.5499 17.822 45.1501 14.2064 43.1207C13.8144 42.9015 13.4223 42.6738 13.0387 42.4378C11.7487 41.6495 10.5094 40.8569 9.76321 39.4869C9.46656 38.9949 9.37283 38.4069 9.50185 37.847C9.77165 36.9196 10.7665 36.5824 11.6391 36.7679C13.0092 37.063 14.1179 37.8513 15.3151 38.5215C16.581 39.2294 17.892 39.8532 19.2398 40.389C19.6655 40.545 20.0913 40.7052 20.5213 40.8527Z" fill="#333333"/>
<path id="Vector_3" d="M30.8662 26.5033C31.6208 27.7679 31.9833 29.627 30.8662 30.6008C29.9472 31.3975 28.5645 31.1614 27.3546 31.0223C24.2807 30.6792 21.176 31.2978 18.4683 32.7928C18.2998 32.9002 18.1146 32.9786 17.9202 33.0247C17.7188 33.0508 17.5142 33.0158 17.333 32.9241C17.1518 32.8323 17.0025 32.6882 16.9043 32.5104C16.5333 31.8654 16.8706 31.0012 17.4565 30.5417C18.0798 30.1293 18.7921 29.8707 19.5348 29.7872C22.6121 29.1928 25.8117 28.5984 28.8554 29.3656C28.9987 29.4159 29.1524 29.4289 29.3022 29.4036C29.787 29.2687 29.6605 28.5309 29.3697 28.1389C28.3579 26.6887 26.7139 25.7993 25.0319 25.2512C23.6534 24.8002 19.7877 24.7159 18.932 23.5018C17.8064 21.8662 21.0777 20.9935 22.2074 21.0779C25.3944 21.2338 29.2853 23.8137 30.8662 26.5033Z" fill="#333333"/>
<path id="Vector_4" d="M37.0165 26.5034C36.2661 27.768 35.8994 29.6271 37.0165 30.6009C37.9355 31.3976 39.3224 31.1615 40.5323 31.0224C43.6062 30.6799 46.7107 31.2984 49.4186 32.793C49.5867 32.901 49.7721 32.9795 49.9667 33.0248C50.172 33.0564 50.3821 33.024 50.5684 32.9319C50.7547 32.8399 50.9082 32.6928 51.0079 32.5105C51.3789 31.8655 51.0374 31.0014 50.4514 30.5419C49.8301 30.1287 49.119 29.87 48.3774 29.7873C45.2958 29.1929 42.1005 28.5985 39.0568 29.3657C38.9134 29.4158 38.7597 29.4288 38.61 29.4037C38.121 29.2688 38.2517 28.531 38.5425 28.139C39.5543 26.6889 41.1983 25.7994 42.8761 25.2514C44.2546 24.8003 48.1245 24.716 48.976 23.5019C50.1016 21.9 46.8303 21.0274 45.6963 21.0906C42.4883 21.2339 38.6015 23.8139 37.0165 26.5034Z" fill="#333333"/>
</g>
</g>
</g>
<defs>
<clipPath id="clip0_1093_6937">
<rect width="69" height="69" fill="white"/>
</clipPath>
</defs>
</svg>
