<svg width="68" height="68" viewBox="0 0 68 68" fill="none" xmlns="http://www.w3.org/2000/svg">
<g id="Asset 1" clip-path="url(#clip0_1093_6944)">
<g id="Layer 2">
<g id="Object">
<path id="Vector" d="M52.2837 0H15.7163C7.03642 0 0 7.03642 0 15.7163V52.2837C0 60.9636 7.03642 68 15.7163 68H52.2837C60.9636 68 68 60.9636 68 52.2837V15.7163C68 7.03642 60.9636 0 52.2837 0Z" fill="#F4805A"/>
<path id="Vector_2" d="M27.4939 32.463C27.2869 32.4615 27.0822 32.4189 26.8917 32.3376C26.7013 32.2562 26.5289 32.1379 26.3847 31.9894L18.0758 23.6805C17.8037 23.382 17.6571 22.9901 17.6664 22.5863C17.6758 22.1825 17.8404 21.7978 18.126 21.5122C18.4116 21.2266 18.7963 21.062 19.2001 21.0527C19.6039 21.0433 19.9957 21.1899 20.2942 21.462L28.6031 29.7709C28.8223 29.9905 28.9715 30.2701 29.0319 30.5744C29.0923 30.8787 29.0612 31.1941 28.9425 31.4808C28.8238 31.7674 28.6229 32.0125 28.3651 32.1851C28.1073 32.3577 27.8042 32.45 27.4939 32.4505V32.463Z" fill="#333333"/>
<path id="Vector_3" d="M19.1813 32.4626C18.871 32.4621 18.5679 32.3698 18.3101 32.1972C18.0523 32.0246 17.8513 31.7795 17.7327 31.4929C17.614 31.2062 17.5829 30.8908 17.6433 30.5865C17.7037 30.2822 17.8529 30.0026 18.072 29.783L26.3809 21.4741C26.6804 21.2154 27.0664 21.0793 27.4618 21.093C27.8573 21.1067 28.233 21.2691 28.5138 21.5478C28.7947 21.8266 28.9599 22.201 28.9766 22.5964C28.9932 22.9917 28.86 23.3787 28.6036 23.6801L20.2947 31.989C20.1499 32.138 19.9769 32.2566 19.7857 32.338C19.5945 32.4193 19.389 32.4617 19.1813 32.4626Z" fill="#333333"/>
<path id="Vector_4" d="M49.4383 32.4629C49.2326 32.4603 49.0295 32.4171 48.8406 32.3359C48.6516 32.2546 48.4806 32.1368 48.3373 31.9893L40.0284 23.6804C39.8828 23.535 39.7672 23.3623 39.6882 23.1722C39.6093 22.9822 39.5686 22.7784 39.5684 22.5726C39.568 22.1569 39.7327 21.7582 40.0264 21.464C40.32 21.1698 40.7185 21.0043 41.1341 21.0039C41.3399 21.0037 41.5438 21.0441 41.734 21.1226C41.9242 21.2012 42.0971 21.3165 42.2428 21.4619L50.5516 29.7708C50.7754 29.99 50.9284 30.271 50.9912 30.5779C51.054 30.8847 51.0235 31.2033 50.9038 31.4927C50.7841 31.7822 50.5806 32.0292 50.3195 32.202C50.0583 32.3749 49.7514 32.4658 49.4383 32.4629Z" fill="#333333"/>
<path id="Vector_5" d="M41.1283 32.4626C40.8184 32.4613 40.5158 32.3684 40.2587 32.1955C40.0015 32.0226 39.8012 31.7774 39.6831 31.4909C39.5649 31.2045 39.5342 30.8894 39.5947 30.5855C39.6552 30.2816 39.8043 30.0023 40.0232 29.783L48.3321 21.4741C48.6315 21.2154 49.0176 21.0793 49.413 21.093C49.8085 21.1067 50.1842 21.2691 50.465 21.5478C50.7458 21.8266 50.9111 22.201 50.9277 22.5964C50.9444 22.9917 50.8112 23.3787 50.5548 23.6801L42.2459 31.989C42.1009 32.1389 41.9272 32.2581 41.7352 32.3394C41.5433 32.4208 41.3368 32.4627 41.1283 32.4626Z" fill="#333333"/>
<path id="Vector_6" d="M48.4243 46.9868C47.0783 46.9868 45.5162 46.3636 43.817 45.1131C42.3463 44.0496 41.154 43.6466 40.6306 44.0454C40.4181 44.2481 40.2324 44.477 40.078 44.7268C39.7777 45.1892 39.4157 45.6086 39.002 45.9731C37.2488 47.4604 34.8476 47.0532 33.1525 46.1767C32.5392 45.8433 31.9468 45.4729 31.3786 45.0674C30.8037 44.6429 30.1887 44.2755 29.5423 43.9706C28.7931 43.6681 27.9783 43.565 27.1774 43.6713C26.3765 43.7776 25.6168 44.0897 24.9724 44.5772C24.8021 44.7101 24.6276 44.868 24.4365 45.0342C23.8697 45.5986 23.2035 46.0536 22.4715 46.3761C20.012 47.3565 17.9431 45.8651 16.2813 44.6644C15.3507 43.9956 14.47 43.3599 13.6266 43.1356C12.963 43.0014 12.2732 43.1069 11.6799 43.4332C11.0867 43.7595 10.6282 44.2855 10.3862 44.9179C10.26 45.314 9.98166 45.6437 9.61237 45.8346C9.24307 46.0255 8.81307 46.0619 8.41696 45.9357C8.02085 45.8095 7.69109 45.5312 7.5002 45.1619C7.30932 44.7926 7.27296 44.3626 7.39912 43.9665C7.88016 42.5643 8.86633 41.3917 10.1652 40.6774C11.4641 39.963 12.9826 39.7582 14.4243 40.1029C15.8327 40.4768 17.0457 41.3492 18.1134 42.1219C19.7046 43.2644 20.5355 43.7837 21.3124 43.4638C21.696 43.2625 22.0463 43.0033 22.351 42.6952C22.567 42.5 22.7913 42.2798 23.0406 42.1053C24.1247 41.2732 25.4083 40.7405 26.7629 40.5604C28.1176 40.3803 29.4958 40.5592 30.7596 41.0792C31.602 41.464 32.4024 41.9345 33.1484 42.4834C33.6144 42.8168 34.0999 43.122 34.6024 43.3973C35.3959 43.8128 36.4678 44.008 36.9746 43.5801C37.1749 43.3806 37.3519 43.159 37.5022 42.9196C37.8388 42.393 38.2599 41.9256 38.7486 41.5361C39.9949 40.6055 42.1677 40.0281 45.6699 42.5623C47.1863 43.6591 48.362 44.0704 48.9021 43.6923C49.1097 43.5113 49.2952 43.3063 49.4546 43.0816C49.6042 42.8946 49.7496 42.7118 49.9074 42.5374C51.3116 40.967 53.609 40.3064 55.9023 40.8174C58.1956 41.3284 60.0027 42.8946 60.6176 44.9054C60.7388 45.3032 60.697 45.7328 60.5015 46.0997C60.3059 46.4667 59.9726 46.7409 59.5748 46.8621C59.1771 46.9833 58.7475 46.9416 58.3805 46.746C58.0135 46.5505 57.7393 46.2171 57.6181 45.8194C57.2774 44.7018 56.1599 44.0828 55.2251 43.8793C54.2904 43.6757 53.0191 43.7588 52.2381 44.6312C52.1259 44.7558 52.022 44.8888 51.9182 45.0217C51.5802 45.4956 51.1726 45.9158 50.7092 46.2681C50.0426 46.7429 49.2427 46.9945 48.4243 46.9868Z" fill="#333333"/>
</g>
</g>
</g>
<defs>
<clipPath id="clip0_1093_6944">
<rect width="68" height="68" fill="white"/>
</clipPath>
</defs>
</svg>
