<svg width="36" height="33" viewBox="0 0 36 33" fill="none" xmlns="http://www.w3.org/2000/svg">
<g id="gg:math-plus">
<path id="Vector" d="M17.9997 3C17.5134 3 17.0471 3.18437 16.7033 3.51256C16.3595 3.84075 16.1663 4.28587 16.1663 4.75V15.25H5.16634C4.68011 15.25 4.2138 15.4344 3.86998 15.7626C3.52616 16.0908 3.33301 16.5359 3.33301 17C3.33301 17.4641 3.52616 17.9092 3.86998 18.2374C4.2138 18.5656 4.68011 18.75 5.16634 18.75H16.1663V29.25C16.1663 29.7141 16.3595 30.1593 16.7033 30.4874C17.0471 30.8156 17.5134 31 17.9997 31C18.4859 31 18.9522 30.8156 19.296 30.4874C19.6399 30.1593 19.833 29.7141 19.833 29.25V18.75H30.833C31.3192 18.75 31.7856 18.5656 32.1294 18.2374C32.4732 17.9092 32.6663 17.4641 32.6663 17C32.6663 16.5359 32.4732 16.0908 32.1294 15.7626C31.7856 15.4344 31.3192 15.25 30.833 15.25H19.833V4.75C19.833 4.28587 19.6399 3.84075 19.296 3.51256C18.9522 3.18437 18.4859 3 17.9997 3Z" fill="#F0ECE6"/>
</g>
</svg>
