<svg width="15" height="18" viewBox="0 0 15 18" fill="none" xmlns="http://www.w3.org/2000/svg">
<g id="Group">
<path id="Vector" d="M2.57129 6.20019C2.57129 5.89082 2.80148 5.64014 3.08538 5.64014H9.25594C9.54002 5.64014 9.77022 5.89082 9.77022 6.20019C9.77022 6.50938 9.54002 6.76006 9.25594 6.76006H3.08538C2.80148 6.76006 2.57129 6.50937 2.57129 6.20019Z" fill="#722F37"/>
<path id="Vector_2" d="M2.57129 8.44024C2.57129 8.13105 2.80148 7.88037 3.08538 7.88037H9.25594C9.54002 7.88037 9.77022 8.13106 9.77022 8.44024C9.77022 8.74961 9.54002 9.00029 9.25594 9.00029H3.08538C2.80148 9.00029 2.57129 8.74961 2.57129 8.44024Z" fill="#722F37"/>
<path id="Vector_3" d="M2.57129 10.6802C2.57129 10.371 2.80148 10.1201 3.08538 10.1201H7.19921C7.48312 10.1201 7.7133 10.371 7.7133 10.6802C7.7133 10.9894 7.48311 11.2402 7.19921 11.2402H3.08538C2.80148 11.2402 2.57129 10.9894 2.57129 10.6802Z" fill="#722F37"/>
<path id="Vector_4" fill-rule="evenodd" clip-rule="evenodd" d="M12.6159 1.59872V14.0401H13.3563C14.1116 14.0401 14.6448 14.9012 14.2851 15.6657L13.9039 16.4763C13.6354 17.0473 13.0913 17.4001 12.504 17.4001H1.56759C0.713625 17.4001 0 16.6606 0 15.7201V1.59872C0 1.03454 0.426637 0.600098 0.926774 0.600098C1.09223 0.600098 1.25544 0.647909 1.39887 0.739406L3.3924 2.0112C3.56543 2.12163 3.78339 2.12163 3.95661 2.0112L5.50612 1.0227C6.00025 0.707328 6.61576 0.707328 7.10989 1.0227L8.65941 2.0112C8.83261 2.12163 9.05058 2.12163 9.22362 2.0112L11.2171 0.739406C11.3606 0.64791 11.5238 0.600098 11.6892 0.600098C12.1894 0.600098 12.616 1.03453 12.616 1.59872H12.6159ZM1.02852 15.7201V1.80128L2.87263 2.97765C3.36676 3.29283 3.98228 3.29283 4.47641 2.97765L6.02592 1.98915C6.19912 1.87871 6.41709 1.87871 6.59013 1.98915L8.13965 2.97765C8.63378 3.29283 9.24929 3.29283 9.74342 2.97765L11.5877 1.80128V14.0401H3.79914C3.21188 14.0401 2.66764 14.393 2.39922 14.9639L1.78027 16.2802H1.56781C1.25842 16.2802 1.02877 16.0167 1.02877 15.7201H1.02852ZM12.504 16.2802H2.93522L3.314 15.4745C3.40232 15.2866 3.58792 15.1601 3.79865 15.1601H13.356L13.3603 15.1604C13.3623 15.1606 13.3644 15.161 13.3644 15.161L13.3663 15.162L12.9882 15.9657C12.8999 16.1536 12.7145 16.2802 12.5037 16.2802L12.504 16.2802Z" fill="#722F37"/>
</g>
</svg>
