<svg width="24" height="24" viewBox="0 0 24 24" fill="none" xmlns="http://www.w3.org/2000/svg">
<g id="Icon 01">
<g id="Layer 3">
<path id="Vector" d="M12.6525 2.43906L12.6517 2.4383C12.5667 2.35206 12.4654 2.28368 12.3536 2.23716L12.4085 2.10527L12.3536 2.23716C12.2419 2.19064 12.1219 2.16693 12.0009 2.16742L11.9997 2.16743C11.8782 2.16689 11.7579 2.19059 11.6458 2.23713C11.5336 2.28368 11.4319 2.35213 11.3465 2.43847L11.346 2.439L2.46652 11.3272L2.46648 11.3272C2.33965 11.4541 2.2525 11.6151 2.21567 11.7907C2.17885 11.9663 2.19395 12.1488 2.25913 12.316C2.32431 12.4831 2.43674 12.6276 2.58271 12.732C2.72789 12.8357 2.89999 12.8952 3.07821 12.9032H3.44518C3.73133 12.9032 4.00575 13.0169 4.20809 13.2192C4.41042 13.4215 4.52409 13.696 4.52409 13.9821V20.5127C4.52409 20.6791 4.55689 20.8438 4.62062 20.9975C4.68434 21.1512 4.77774 21.2908 4.89546 21.4083C5.01319 21.5259 5.15294 21.619 5.30671 21.6825C5.46048 21.746 5.62526 21.7786 5.79163 21.7783H5.79185H8.82504V17.0972V17.0971C8.82566 16.5271 9.05235 15.9806 9.45538 15.5776C9.85841 15.1746 10.4049 14.9479 10.9748 14.9473L10.975 14.9473H13.0234H13.0236C13.5935 14.9479 14.14 15.1746 14.543 15.5776C14.946 15.9806 15.1727 16.5271 15.1733 17.0971L15.1733 17.0972V21.7739H18.2065C18.5422 21.7739 18.8641 21.6406 19.1014 21.4033C19.3388 21.1659 19.4721 20.844 19.4721 20.5084V13.9778C19.4721 13.6916 19.5858 13.4172 19.7881 13.2149C19.9905 13.0125 20.2649 12.8988 20.551 12.8988H20.8796C21.0627 12.8987 21.2416 12.8443 21.3937 12.7426C21.5458 12.6408 21.6644 12.4962 21.7345 12.3271C21.8045 12.158 21.8228 11.9719 21.7871 11.7924C21.7515 11.6129 21.6634 11.448 21.5341 11.3185L12.6525 2.43906ZM12.6525 2.43906L21.534 11.3184L12.6525 2.43906ZM3.02548 14.1163L3.02549 14.1161C2.60865 14.0983 2.20605 13.9594 1.86696 13.7163C1.52787 13.4733 1.267 13.1366 1.11629 12.7476C0.965575 12.3585 0.931553 11.934 1.01839 11.5259C1.1052 11.118 1.30905 10.7441 1.60499 10.4502C1.60506 10.4501 1.60513 10.4501 1.60521 10.45L10.4817 1.57566C10.4818 1.5756 10.4818 1.57554 10.4819 1.57548C10.6807 1.37514 10.9173 1.2163 11.178 1.10818C11.4386 1.00008 11.7182 0.944832 12.0003 0.945653M3.02548 14.1163L20.8797 13.9821M3.02548 14.1163H3.03158H3.09253H3.3045H3.02548ZM12.0003 0.945653C12.2821 0.945011 12.5613 1.00035 12.8215 1.10846C13.0818 1.21658 13.3181 1.37533 13.5165 1.5755C13.5166 1.57557 13.5166 1.57563 13.5167 1.5757L22.3978 10.4568C22.6987 10.757 22.9038 11.1398 22.987 11.5567C23.0703 11.9735 23.0279 12.4057 22.8654 12.7985C22.7028 13.1913 22.4273 13.527 22.0738 13.7632C21.7204 13.9993 21.3048 14.1252 20.8797 14.125M12.0003 0.945653C12.0002 0.945653 12.0001 0.945653 11.9999 0.945654L12.0003 1.08851L12.0007 0.945654C12.0006 0.945654 12.0005 0.945653 12.0003 0.945653ZM20.8797 14.125L20.8797 13.9821M20.8797 14.125H20.8797V13.9821M20.8797 14.125H20.6939M20.8797 13.9821H20.6939V14.125M20.6939 14.125H20.551L3.44736 20.504L3.3045 20.5036C3.3045 20.5037 3.3045 20.5037 3.3045 20.5038C3.30361 20.831 3.36726 21.1553 3.49179 21.4579C3.61635 21.7606 3.79938 22.0358 4.0304 22.2676C4.26142 22.4995 4.5359 22.6836 4.83812 22.8092C5.14035 22.9349 5.4644 22.9998 5.79172 23.0001H5.79185H9.27484C9.37736 23.0001 9.47888 22.9799 9.57359 22.9406C9.66831 22.9014 9.75437 22.8439 9.82686 22.7714C9.89936 22.6989 9.95686 22.6129 9.99609 22.5181C10.0353 22.4234 10.0555 22.3219 10.0555 22.2194V17.0972C10.0555 16.851 10.1533 16.615 10.3274 16.4409C10.5014 16.2668 10.7375 16.169 10.9837 16.169H13.0234C13.2696 16.169 13.5057 16.2668 13.6797 16.4409C13.8538 16.615 13.9516 16.851 13.9516 17.0972V22.2194C13.9516 22.3219 13.9718 22.4234 14.011 22.5181C14.0502 22.6129 14.1077 22.6989 14.1802 22.7714C14.2527 22.8439 14.3388 22.9014 14.4335 22.9406C14.5282 22.9799 14.6297 23.0001 14.7323 23.0001L18.2152 23.0001L18.2159 23.0001C18.8738 22.997 19.5037 22.7337 19.968 22.2676C20.4323 21.8016 20.6933 21.1707 20.6939 20.5129V20.5127V14.125Z" fill="#AE4565" stroke="#AE4565" stroke-width="0.285714" stroke-linejoin="round"/>
</g>
</g>
</svg>