<svg width="74" height="13" viewBox="0 0 74 13" fill="none" xmlns="http://www.w3.org/2000/svg">
<g id="Loading bar" clip-path="url(#clip0_731_10715)">
<path id="Vector" d="M73.5673 11.8918C73.5673 8.85388 72.3606 5.94038 70.2126 3.79213C68.0646 1.64389 65.1512 0.43685 62.1133 0.436523H0.431641C0.432948 3.4738 1.64042 6.38622 3.78856 8.53344C5.93669 10.6807 8.84964 11.8869 11.8869 11.8869H73.5673V11.8918ZM73.5673 11.8918C73.6176 12.245 73.7535 12.3333 73.8151 12.3333H74.0001" stroke="#0A0A0A" stroke-width="0.86306" stroke-miterlimit="10"/>
<path id="Vector_2" d="M39.171 10.2112H11.3854C9.23603 10.2112 7.17472 9.35737 5.6549 7.83755C4.13508 6.31773 3.28125 4.25641 3.28125 2.10706H31.0681C32.1323 2.10706 33.186 2.31669 34.1692 2.72397C35.1524 3.13126 36.0457 3.72822 36.7981 4.48078C37.5506 5.23333 38.1474 6.12673 38.5545 7.10996C38.9617 8.0932 39.1711 9.147 39.171 10.2112Z" fill="#0A0A0A"/>
</g>
<defs>
<clipPath id="clip0_731_10715">
<rect width="74" height="12.3183" fill="white"/>
</clipPath>
</defs>
</svg>
