<svg width="221" height="221" viewBox="0 0 221 221" fill="none" xmlns="http://www.w3.org/2000/svg">
<g id="QR 1" clip-path="url(#clip0_725_7104)">
<path id="Vector" d="M107.118 25.812H100.337V32.5934H107.118V25.812Z" fill="#222221"/>
<path id="Vector_2" d="M147.771 25.8298V73.2465H195.259V25.8298H147.771ZM188.407 39.3749V66.4828H154.535V32.5934H188.407V39.3749Z" fill="#222221"/>
<path id="Vector_3" d="M39.375 46.1386V52.92V59.7014H59.7015V52.92V46.1386V39.3749H39.375V46.1386Z" fill="#222221"/>
<path id="Vector_4" d="M93.5549 52.92H80.0098V59.7014H93.5549V52.92Z" fill="#222221"/>
<path id="Vector_5" d="M100.336 59.7014V66.4651H107.118V59.7014H113.881V66.4651H120.663V59.7014H127.444V52.92H120.663V46.1385H140.989V39.3749H127.444V32.5934V25.812H120.663V32.5934H107.118V39.3749V46.1385H113.881V52.92H107.118V46.1385H100.336V39.3749H86.7912V32.5934V25.812H80.0098V32.5934V39.3749V46.1385H93.5726V52.92H100.336V59.7014Z" fill="#222221"/>
<path id="Vector_6" d="M140.989 52.92H134.208V59.7014H140.989V52.92Z" fill="#222221"/>
<path id="Vector_7" d="M181.643 52.92V46.1386V39.3749H161.316V46.1386V52.92V59.7014H181.643V52.92Z" fill="#222221"/>
<path id="Vector_8" d="M73.2468 66.4828V25.8298H25.8301V73.2465H73.2468V66.4828ZM32.5938 66.4828V32.5934H66.4654V66.4828H32.5938Z" fill="#222221"/>
<path id="Vector_9" d="M86.7912 66.4651H80.0098V73.2465H86.7912V66.4651Z" fill="#222221"/>
<path id="Vector_10" d="M100.355 66.4651H93.5732V73.2465H100.355V66.4651Z" fill="#222221"/>
<path id="Vector_11" d="M113.9 66.4651H107.118V73.2465H113.9V66.4651Z" fill="#222221"/>
<path id="Vector_12" d="M127.445 66.4651H120.663V73.2465H127.445V66.4651Z" fill="#222221"/>
<path id="Vector_13" d="M120.663 73.2465H113.882V80.028H120.663V73.2465Z" fill="#222221"/>
<path id="Vector_14" d="M174.862 86.7916H168.08V80.0102H161.317V86.7916H154.535V93.573H147.754V100.337H154.535V107.118H161.317V100.337V93.573H168.08V100.337V107.118H188.407V113.882H195.188V107.118V100.337V93.573H188.407V100.337H174.862V93.573H188.407V86.7916H195.188V80.0102H174.862V86.7916Z" fill="#222221"/>
<path id="Vector_15" d="M73.2466 100.337V93.573H66.4652V86.7916H73.2466V93.573H80.0103V86.7916H86.7917V93.573H80.0103V100.337H93.5732V107.118H100.337V100.337V93.573H93.5732V86.7916V80.0102H46.1387V86.7916H59.7015V93.573H46.1387V100.337H52.9201V107.118H59.7015V100.337H73.2466Z" fill="#222221"/>
<path id="Vector_16" d="M32.5939 100.337H39.3754V93.573V86.7916H32.5939V80.0102H25.8125V86.7916V93.573V100.337V107.118V113.882V120.663V127.445V134.208V140.99H32.5939V134.208V127.445H39.3754V120.663H32.5939V113.882H39.3754V107.118H32.5939V100.337Z" fill="#222221"/>
<path id="Vector_17" d="M46.1564 100.337H39.375V107.118H46.1564V100.337Z" fill="#222221"/>
<path id="Vector_18" d="M80.0275 100.337H73.2461V107.118H80.0275V100.337Z" fill="#222221"/>
<path id="Vector_19" d="M113.882 113.882V107.118V100.337H120.663V93.573H127.445V100.337H140.99V93.573H134.209V86.7916H140.99V93.573H147.754V86.7916V80.0102H140.99V73.2465V66.4651H134.209V73.2465V80.0102H127.445V86.7916H113.882V93.573H107.118V100.337V107.118H100.337V113.882H113.882Z" fill="#222221"/>
<path id="Vector_20" d="M154.553 107.118H147.771V113.9H154.553V107.118Z" fill="#222221"/>
<path id="Vector_21" d="M93.5734 113.882H86.792V120.663H93.5734V113.882Z" fill="#222221"/>
<path id="Vector_22" d="M181.643 120.663H168.08V113.882H161.316V120.663V127.445H168.08V134.208H174.862V140.99V147.754H188.407V140.99V134.208H181.643V127.445H188.407V134.208H195.188V127.445V120.663H188.407V113.882H181.643V120.663Z" fill="#222221"/>
<path id="Vector_23" d="M52.9201 120.663H46.1387V127.445V134.208H52.9201V127.445V120.663Z" fill="#222221"/>
<path id="Vector_24" d="M80.0101 127.445H86.7916V120.663H80.0101V113.882H73.2465V120.663H66.465V113.882H73.2465V107.118H59.7014V113.882H52.9199V120.663H59.7014V127.445V134.208H66.465V127.445H73.2465V134.208H66.465V140.99H80.0101V134.208V127.445Z" fill="#222221"/>
<path id="Vector_25" d="M161.317 127.462H154.535V134.244H147.771V127.462H154.535V120.681H147.771V113.917H140.99V107.136H127.445V113.917H113.9V120.681H100.337V134.244H107.118V127.462H127.445V141.008H120.699V154.57H127.48V147.789H134.262V154.57H127.445V168.116H147.771V174.879H154.535V168.116H168.098V134.226H161.317V127.462ZM161.317 147.789V161.334H140.99V140.99H161.317V147.789Z" fill="#222221"/>
<path id="Vector_26" d="M59.7014 134.208H52.9199V140.99H59.7014V134.208Z" fill="#222221"/>
<path id="Vector_27" d="M120.663 134.208H113.882V140.99H120.663V134.208Z" fill="#222221"/>
<path id="Vector_28" d="M113.9 147.771V140.99H100.337V134.226H93.5734V127.462H86.792V141.008H93.5734V147.789H86.792V141.008H80.0283V174.861H93.5734V168.098H100.337V154.553H107.119V147.771H113.9ZM93.5734 161.316H86.792V154.553H93.5734V161.316Z" fill="#222221"/>
<path id="Vector_29" d="M25.8301 154.553V195.188H73.2468V147.771H25.8301V154.553ZM66.4654 154.553V188.424H32.5938V154.553H66.4654Z" fill="#222221"/>
<path id="Vector_30" d="M154.553 147.753H147.771V154.535H154.553V147.753Z" fill="#222221"/>
<path id="Vector_31" d="M195.188 147.753H188.406V154.535H195.188V147.753Z" fill="#222221"/>
<path id="Vector_32" d="M120.663 161.316V154.535H107.118V161.316V168.08H113.882V161.316H120.663Z" fill="#222221"/>
<path id="Vector_33" d="M181.643 161.316V168.08V174.861H161.317V181.643H154.535V188.407H168.08V181.643H174.862V188.407H188.407V195.188H195.188V188.407V181.643V174.861V168.08V161.316H188.407V154.535H181.643V161.316Z" fill="#222221"/>
<path id="Vector_34" d="M113.882 174.861H107.118V181.643H120.663V174.861H127.445V168.08H113.882V174.861Z" fill="#222221"/>
<path id="Vector_35" d="M59.7015 174.861V168.08V161.316H39.375V168.08V174.861V181.643H59.7015V174.861Z" fill="#222221"/>
<path id="Vector_36" d="M147.772 174.861H140.99V181.643H147.772V174.861Z" fill="#222221"/>
<path id="Vector_37" d="M86.7912 188.407H80.0098V195.188H86.7912V188.407Z" fill="#222221"/>
<path id="Vector_38" d="M107.118 188.407V195.188H127.445V188.407V181.643H120.663V188.407H107.118Z" fill="#222221"/>
<path id="Vector_39" d="M147.753 188.407H134.208V195.188H147.753V188.407Z" fill="#222221"/>
<path id="Vector_40" d="M174.862 188.407H168.08V195.188H174.862V188.407Z" fill="#222221"/>
<path id="Vector_41" d="M4.52687 48.4286H0V0H46.1386V4.52687H4.52687V48.4286Z" fill="#AE4565"/>
<path id="Vector_42" d="M221 48.4286H216.491V4.52687H174.861V0H221V48.4286Z" fill="#AE4565"/>
<path id="Vector_43" d="M46.1386 221H0V177.151H4.52687V216.473H46.1386V221Z" fill="#AE4565"/>
<path id="Vector_44" d="M221 221H174.861V216.473H216.491V177.151H221V221Z" fill="#AE4565"/>
</g>
<defs>
<clipPath id="clip0_725_7104">
<rect width="221" height="221" fill="white"/>
</clipPath>
</defs>
</svg>
