<svg width="22" height="19" viewBox="0 0 22 19" fill="none" xmlns="http://www.w3.org/2000/svg">
<path id="Vector" d="M17.4167 12.9087L16.1242 14.3107L12.8333 10.741L9.5425 14.3107L8.25 12.9087L11.5408 9.33898L8.25 5.76927L9.5425 4.36723L12.8333 7.93695L16.1242 4.36723L17.4167 5.76927L14.1258 9.33898L17.4167 12.9087ZM20.1667 0.389832C20.6529 0.389832 21.1192 0.599355 21.463 0.972308C21.8068 1.34526 22 1.8511 22 2.37853V16.2994C22 16.8269 21.8068 17.3327 21.463 17.7057C21.1192 18.0786 20.6529 18.2881 20.1667 18.2881H6.41667C5.78417 18.2881 5.28917 17.9302 4.95917 17.4032L0 9.33898L4.95917 1.26486C5.28917 0.737854 5.78417 0.389832 6.41667 0.389832H20.1667ZM20.1667 2.37853H6.41667L2.09 9.33898L6.41667 16.2994H20.1667V2.37853Z" fill="#962F4E"/>
</svg>
