<svg width="70" height="83" viewBox="0 0 70 83" fill="none" xmlns="http://www.w3.org/2000/svg">
<path id="Vector" d="M24.4919 63.7042C24.3689 63.6633 24.2868 63.6633 24.2048 63.6224C23.5486 63.6224 22.8923 63.6633 22.1951 63.7042M21.7029 63.7042C16.4119 63.5815 11.9413 62.028 8.24993 59.0437C4.35349 55.9368 2.42578 52.1757 2.42578 47.7606V2.62796C8.49602 2.58708 13.7049 5.28522 18.0525 10.7633C22.072 15.8325 24.2048 21.9238 24.4509 28.9553C24.4509 29.405 24.4509 40.9743 24.4919 63.7042C24.8611 70.2451 28.0192 75.0282 33.9664 78.0943C37.4117 79.8521 41.103 80.7106 44.9585 80.6289C50.8646 80.4245 56.8118 80.3018 62.8411 80.2201C64.0715 80.2201 65.302 80.2201 66.5734 80.2201C66.2043 73.72 63.7434 69.1413 59.1497 66.4432C55.6634 64.3582 50.9057 63.418 44.8764 63.6224L24.9431 63.7042H21.7029Z" stroke="#F0ECE6" stroke-width="4.75168" stroke-miterlimit="3" stroke-linecap="round"/>
</svg>