<svg width="70" height="84" viewBox="0 0 70 84" fill="none" xmlns="http://www.w3.org/2000/svg">
<path id="Vector" d="M24.6394 64.2042C24.5163 64.1633 24.4343 64.1633 24.3523 64.1224C23.696 64.1224 23.0398 64.1633 22.3425 64.2042M21.8504 64.2042C16.5594 64.0815 12.0888 62.528 8.39739 59.5437C4.50095 56.4368 2.57324 52.6757 2.57324 48.2606V3.12796C8.64348 3.08708 13.8524 5.78522 18.2 11.2633C22.2195 16.3325 24.3523 22.4238 24.5984 29.4553C24.5984 29.905 24.5984 41.4743 24.6394 64.2042C25.0085 70.7451 28.1667 75.5282 34.1139 78.5943C37.5591 80.3521 41.2505 81.2106 45.1059 81.1289C51.0121 80.9245 56.9593 80.8018 62.9885 80.7201C64.219 80.7201 65.4494 80.7201 66.7209 80.7201C66.3518 74.22 63.8908 69.6413 59.2972 66.9432C55.8109 64.8582 51.0531 63.918 45.0239 64.1224L25.0905 64.2042H21.8504Z" stroke="#F0ECE6" stroke-width="4.75168" stroke-miterlimit="3" stroke-linecap="round"/>
</svg>
