<svg width="18" height="21" viewBox="0 0 18 21" fill="none" xmlns="http://www.w3.org/2000/svg">
<path id="Vector" d="M11.06 7.32747L11.98 8.35662L2.92 18.4915H2V17.4624L11.06 7.32747ZM14.66 0.593231C14.41 0.593231 14.15 0.705096 13.96 0.917638L12.13 2.96476L15.88 7.15967L17.71 5.11255C17.8027 5.00906 17.8762 4.88614 17.9264 4.75081C17.9766 4.61549 18.0024 4.47042 18.0024 4.32391C18.0024 4.1774 17.9766 4.03233 17.9264 3.89701C17.8762 3.76168 17.8027 3.63876 17.71 3.53527L15.37 0.917638C15.17 0.693909 14.92 0.593231 14.66 0.593231ZM11.06 4.16171L0 16.5339V20.7288H3.75L14.81 8.35662L11.06 4.16171Z" fill="#962F4E"/>
</svg>
